<svg width="241" height="41" viewBox="0 0 241 41" fill="none" xmlns="http://www.w3.org/2000/svg">
<path d="M59.6562 12.1378V33.6441H64.6033V12.1378H59.6562Z" fill="white"/>
<path d="M77.2269 17.8523C75.1862 17.8523 73.6403 18.5897 72.8054 19.7264V18.2824H68.1675V33.6441H72.8054V25.2566C72.8054 23.0753 73.9804 22.0921 75.6809 22.0921C77.1651 22.0921 78.3709 22.9831 78.3709 24.888V33.6441H83.0088V24.212C83.0088 20.0644 80.3498 17.8523 77.2269 17.8523Z" fill="white"/>
<path d="M93.6144 34.0743C96.6445 34.0743 99.2727 32.5074 100.602 30.1109L96.5518 27.8067C96.057 28.882 94.913 29.5272 93.5526 29.5272C91.5428 29.5272 90.0587 28.0832 90.0587 25.9633C90.0587 23.8434 91.5428 22.3994 93.5526 22.3994C94.913 22.3994 96.0261 23.0446 96.5518 24.1199L100.602 21.7849C99.2727 19.4192 96.6136 17.8523 93.6144 17.8523C88.9147 17.8523 85.4208 21.3855 85.4208 25.9633C85.4208 30.5411 88.9147 34.0743 93.6144 34.0743Z" fill="white"/>
<path d="M109.587 34.0743C114.133 34.0743 117.781 30.5411 117.781 25.9633C117.781 21.3855 114.133 17.8523 109.587 17.8523C105.042 17.8523 101.394 21.3855 101.394 25.9633C101.394 30.5411 105.042 34.0743 109.587 34.0743ZM109.587 29.5886C107.578 29.5886 106.032 28.1446 106.032 25.9633C106.032 23.7819 107.578 22.3379 109.587 22.3379C111.597 22.3379 113.143 23.7819 113.143 25.9633C113.143 28.1446 111.597 29.5886 109.587 29.5886Z" fill="white"/>
<path d="M131.752 18.2824V19.8493C130.731 18.5897 129.247 17.8523 127.238 17.8523C122.847 17.8523 119.631 21.4162 119.631 25.656C119.631 29.8959 122.847 33.4598 127.238 33.4598C129.247 33.4598 130.731 32.7224 131.752 31.4628V32.876C131.752 35.0574 130.422 36.1635 128.258 36.1635C126.217 36.1635 125.321 35.3032 124.733 34.2279L120.775 36.5014C122.198 39.0207 124.888 40.2189 128.103 40.2189C132.216 40.2189 136.266 38.0376 136.266 32.876V18.2824H131.752ZM128.011 29.22C125.815 29.22 124.269 27.776 124.269 25.656C124.269 23.5361 125.815 22.0921 128.011 22.0921C130.206 22.0921 131.752 23.5361 131.752 25.656C131.752 27.776 130.206 29.22 128.011 29.22Z" fill="white"/>
<path d="M148.728 17.8523C146.687 17.8523 145.141 18.5897 144.306 19.7264V18.2824H139.669V33.6441H144.306V25.2566C144.306 23.0753 145.481 22.0921 147.182 22.0921C148.666 22.0921 149.872 22.9831 149.872 24.888V33.6441H154.51V24.212C154.51 20.0644 151.851 17.8523 148.728 17.8523Z" fill="white"/>
<path d="M160.014 16.9306C161.529 16.9306 162.797 15.6709 162.797 14.1655C162.797 12.66 161.529 11.4004 160.014 11.4004C158.499 11.4004 157.231 12.66 157.231 14.1655C157.231 15.6709 158.499 16.9306 160.014 16.9306ZM157.695 33.6441H162.333V18.2824H157.695V33.6441Z" fill="white"/>
<path d="M183.041 17.8523C180.846 17.8523 179.424 18.6511 178.558 19.8801C177.692 18.5897 176.332 17.8523 174.508 17.8523C172.436 17.8523 171.076 18.6511 170.365 19.6957V18.2824H165.727V33.6441H170.365V24.9801C170.365 23.1675 171.23 22.0921 172.776 22.0921C174.26 22.0921 175.002 23.0753 175.002 24.6115V33.6441H179.64V24.9801C179.64 23.1675 180.506 22.0921 182.052 22.0921C183.536 22.0921 184.278 23.0753 184.278 24.6115V33.6441H188.916V24.212C188.916 20.3716 186.597 17.8523 183.041 17.8523Z" fill="white"/>
<path d="M199.507 34.0743C204.052 34.0743 207.701 30.5411 207.701 25.9633C207.701 21.3855 204.052 17.8523 199.507 17.8523C194.962 17.8523 191.314 21.3855 191.314 25.9633C191.314 30.5411 194.962 34.0743 199.507 34.0743ZM199.507 29.5886C197.497 29.5886 195.951 28.1446 195.951 25.9633C195.951 23.7819 197.497 22.3379 199.507 22.3379C201.517 22.3379 203.063 23.7819 203.063 25.9633C203.063 28.1446 201.517 29.5886 199.507 29.5886Z" fill="white"/>
<path d="M220.311 18.2824V26.6699C220.311 28.8513 219.136 29.8344 217.436 29.8344C215.951 29.8344 214.746 28.9435 214.746 27.0386V18.2824H210.108V27.7145C210.108 31.8622 212.767 34.0743 215.89 34.0743C217.93 34.0743 219.476 33.3369 220.311 32.2001V33.6441H224.949V18.2824H220.311Z" fill="white"/>
<path d="M232.59 22.7681C232.59 22.215 233.085 21.9078 233.889 21.9078C234.909 21.9078 235.527 22.4608 235.96 23.2596L239.918 21.1397C238.619 18.9583 236.393 17.8523 233.889 17.8523C230.673 17.8523 227.828 19.5421 227.828 22.8909C227.828 28.2061 235.435 27.3151 235.435 29.0049C235.435 29.6194 234.878 29.9573 233.765 29.9573C232.404 29.9573 231.539 29.3121 231.137 28.1446L227.117 30.4182C228.323 32.9068 230.673 34.0743 233.765 34.0743C237.104 34.0743 240.196 32.5688 240.196 29.0356C240.196 23.3518 232.59 24.5193 232.59 22.7681Z" fill="white"/>
<path d="M45.4428 4.4346C45.4428 4.4346 40.336 4.4346 33.1279 0.220703C33.1279 0.220703 28.8213 3.36888 20.727 4.38152C20.7738 5.9416 20.4572 7.49322 19.7976 8.93636C19.3091 9.94226 18.6542 10.8757 17.8551 11.7048L17.6692 11.8906H8.39176C8.31922 11.8906 6.89575 11.7701 6.17949 12.7276C5.95374 13.0371 5.82744 13.3967 5.81455 13.7668C5.78873 14.2026 5.92514 14.6337 6.20215 14.9918C6.86629 15.8227 8.01549 15.7513 8.10162 15.7452C8.92216 15.6778 9.78123 15.7452 10.595 15.7452H13.1495C14.7158 15.7452 18.5011 15.7309 18.5011 15.7309C18.7751 15.7282 19.0409 15.8151 19.2492 15.9754C19.4576 16.1356 19.5945 16.3585 19.6344 16.6026C19.6484 16.7424 19.6306 16.8833 19.5821 17.0167C19.5336 17.1501 19.4554 17.2732 19.3523 17.3785C19.2492 17.4838 19.1234 17.569 18.9825 17.629C18.8416 17.6891 18.6886 17.7226 18.5328 17.7276L13.4419 17.8541C12.9461 17.9227 12.4965 18.1552 12.1807 18.5062C11.8649 18.8572 11.7056 19.3016 11.7339 19.7527C11.7622 20.2038 11.9761 20.6292 12.3338 20.9459C12.6915 21.2626 13.1674 21.448 13.6686 21.4658C15.9352 21.4494 20.7723 21.4229 20.7723 21.4229C20.9468 21.4051 21.1234 21.4207 21.2907 21.4686C21.458 21.5165 21.6122 21.5958 21.7431 21.7011C21.8741 21.8064 21.9789 21.9355 22.0506 22.0798C22.1223 22.2242 22.1594 22.3805 22.1594 22.5386C22.1594 22.6968 22.1223 22.8531 22.0506 22.9974C21.9789 23.1418 21.8741 23.2708 21.7431 23.3762C21.6122 23.4815 21.458 23.5607 21.2907 23.6087C21.1234 23.6566 20.9468 23.6722 20.7723 23.6544L2.37375 23.6115C2.07964 23.6076 1.78777 23.6581 1.51626 23.76C1.24475 23.8619 0.999382 24.013 0.795393 24.2039C0.591403 24.3947 0.433142 24.6213 0.330432 24.8696C0.227722 25.1178 0.182755 25.3825 0.19832 25.647C0.213886 25.9116 0.289653 26.1704 0.420919 26.4075C0.552185 26.6446 0.736149 26.8549 0.961393 27.0253C1.18664 27.1956 1.44835 27.3225 1.7303 27.398C2.01225 27.4735 2.30842 27.4959 2.60041 27.464L24.0454 27.364C24.3217 27.3836 24.5797 27.4963 24.7679 27.6797C24.956 27.863 25.0605 28.1035 25.0605 28.3532C25.0605 28.6028 24.956 28.8433 24.7679 29.0267C24.5797 29.21 24.3217 29.3227 24.0454 29.3423C21.1599 29.2913 15.3822 29.4954 15.3822 29.4954C14.8681 29.4448 14.3515 29.5681 13.9327 29.8412C13.5138 30.1143 13.2226 30.5179 13.1155 30.9736C13.0692 31.2322 13.082 31.4966 13.153 31.7507C13.224 32.0047 13.3517 32.2431 13.5284 32.4512C13.7052 32.6593 13.9271 32.8327 14.1807 32.9609C14.4344 33.0891 14.7144 33.1694 15.0036 33.1969H29.4265L32.8265 36.3941H33.1551C39.9212 31.3839 45.7216 22.8153 48.666 11.4333C48.6388 11.4353 45.5312 10.3308 45.4428 4.4346ZM37.5275 17.2845C37.2765 17.5789 37.1303 17.9347 37.1082 18.3053C37.0697 20.1571 37.0946 22.0048 37.0901 23.8565C37.0901 26.1329 35.2767 27.9071 32.9829 27.9132C30.689 27.9193 28.9029 26.2003 28.853 23.9586C28.8349 23.0358 28.853 22.1211 28.853 21.1861C28.853 20.79 28.853 20.3939 28.853 19.9978C28.8961 18.6871 28.7873 17.5479 27.7877 16.3883C26.031 14.3466 26.2441 11.3271 27.901 9.17727C28.6593 8.18597 29.7541 7.44295 31.0211 7.05973C32.288 6.67651 33.6588 6.67378 34.9277 7.05195C37.5049 7.84614 39.3137 10.1838 39.3432 12.8297C39.3639 14.4648 38.7179 16.0499 37.5275 17.2845Z" fill="white"/>
<path d="M36.6837 13.3576C36.2661 11.9191 34.9251 10.9159 33.4368 10.8638C31.9156 10.8076 30.5306 11.7205 29.9657 13.1489C29.7144 13.8269 29.682 14.5565 29.8722 15.2508C30.0623 15.9451 30.4672 16.5749 31.0385 17.0652C31.2606 17.286 31.3945 17.5687 31.4188 17.8677C31.4693 18.6702 31.4364 19.4727 31.4364 20.2752V22.6827C31.4364 22.7229 31.4364 22.765 31.4364 22.8051C31.4891 23.9748 32.3377 24.7652 33.4632 24.687C34.4195 24.6228 35.1339 23.8103 35.1427 22.7108C35.1603 21.0857 35.1427 19.4566 35.1625 17.8296C35.1825 17.5492 35.3075 17.2836 35.5164 17.0772C36.6618 16.06 37.1124 14.8302 36.6837 13.3576ZM35.6571 15.101C35.334 14.9445 35.0108 14.786 34.6701 14.6235C34.8635 13.9153 34.8328 13.2813 34.1447 12.856C33.9392 12.7083 33.6852 12.6279 33.4236 12.6279C33.162 12.6279 32.9081 12.7083 32.7026 12.856C32.0805 13.2813 31.8716 13.8712 32.1992 14.6175L31.2033 15.099C30.9271 14.6182 30.828 14.0689 30.9206 13.5327C31.0133 12.9964 31.2928 12.5016 31.7177 12.1217C32.1573 11.7295 32.7432 11.5036 33.3578 11.4894C33.9723 11.4753 34.57 11.6739 35.0306 12.0455C35.4842 12.4238 35.7906 12.9265 35.9036 13.4777C36.0166 14.0289 35.9301 14.5986 35.6571 15.101Z" fill="white"/>
</svg>
