<svg width="21" height="21" viewBox="0 0 21 21" fill="none" xmlns="http://www.w3.org/2000/svg">
<path d="M10.1963 2.05404C12.863 2.05404 13.1963 2.05404 14.2796 2.13737C17.0296 2.2207 18.2796 3.55404 18.363 6.2207C18.4463 7.30404 18.4463 7.55404 18.4463 10.2207C18.4463 12.8874 18.4463 13.2207 18.363 14.2207C18.2796 16.8874 16.9463 18.2207 14.2796 18.304C13.1963 18.3874 12.9463 18.3874 10.1963 18.3874C7.52962 18.3874 7.19629 18.3874 6.19629 18.304C3.44629 18.2207 2.19629 16.8874 2.11296 14.2207C2.02962 13.1374 2.02962 12.8874 2.02962 10.2207C2.02962 7.55404 2.02962 7.2207 2.11296 6.2207C2.19629 3.55404 3.52962 2.2207 6.19629 2.13737C7.19629 2.05404 7.52962 2.05404 10.1963 2.05404ZM10.1963 0.220703C7.44629 0.220703 7.11296 0.220703 6.11296 0.304036C2.44629 0.470703 0.446289 2.4707 0.279622 6.13737C0.196289 7.13737 0.196289 7.4707 0.196289 10.2207C0.196289 12.9707 0.196289 13.304 0.279622 14.304C0.446289 17.9707 2.44629 19.9707 6.11296 20.1374C7.11296 20.2207 7.44629 20.2207 10.1963 20.2207C12.9463 20.2207 13.2796 20.2207 14.2796 20.1374C17.9463 19.9707 19.9463 17.9707 20.113 14.304C20.1963 13.304 20.1963 12.9707 20.1963 10.2207C20.1963 7.4707 20.1963 7.13737 20.113 6.13737C19.9463 2.4707 17.9463 0.470703 14.2796 0.304036C13.2796 0.220703 12.9463 0.220703 10.1963 0.220703ZM10.1963 5.05404C7.36296 5.05404 5.02962 7.38737 5.02962 10.2207C5.02962 13.054 7.36296 15.3874 10.1963 15.3874C13.0296 15.3874 15.363 13.054 15.363 10.2207C15.363 7.38737 13.0296 5.05404 10.1963 5.05404ZM10.1963 13.554C8.36296 13.554 6.86296 12.054 6.86296 10.2207C6.86296 8.38737 8.36296 6.88737 10.1963 6.88737C12.0296 6.88737 13.5296 8.38737 13.5296 10.2207C13.5296 12.054 12.0296 13.554 10.1963 13.554ZM15.5296 3.7207C14.863 3.7207 14.363 4.2207 14.363 4.88737C14.363 5.55404 14.863 6.05404 15.5296 6.05404C16.1963 6.05404 16.6963 5.55404 16.6963 4.88737C16.6963 4.2207 16.1963 3.7207 15.5296 3.7207Z" fill="white"/>
</svg>
