<svg width="25" height="21" viewBox="0 0 25 21" fill="none" xmlns="http://www.w3.org/2000/svg">
<path d="M7.93549 20.2207C17.2222 20.2207 22.3008 12.5268 22.3008 5.85542C22.3008 5.63683 22.2963 5.41935 22.2862 5.20272C23.272 4.49012 24.129 3.60064 24.8049 2.58856C23.9003 2.99048 22.9269 3.26113 21.9056 3.38316C22.9479 2.75817 23.7484 1.76905 24.1259 0.590156C23.1502 1.16869 22.0699 1.58908 20.9201 1.81579C19.9984 0.834499 18.6863 0.220703 17.2345 0.220703C14.446 0.220703 12.1848 2.48192 12.1848 5.26905C12.1848 5.66538 12.2293 6.0505 12.3155 6.42024C8.11965 6.20948 4.39882 4.20016 1.90893 1.14546C1.47482 1.89136 1.22488 2.75845 1.22488 3.68292C1.22488 5.43447 2.11632 6.98085 3.47183 7.88573C2.64363 7.86026 1.86554 7.63243 1.18514 7.25402C1.18402 7.27502 1.18402 7.29629 1.18402 7.3184C1.18402 9.76378 2.92464 11.8053 5.23456 12.2679C4.81053 12.3835 4.36439 12.4457 3.90369 12.4457C3.57846 12.4457 3.26219 12.4132 2.95459 12.3547C3.59721 14.3604 5.46127 15.8203 7.67127 15.8614C5.94296 17.2158 3.76599 18.0227 1.40065 18.0227C0.993412 18.0227 0.591492 17.9995 0.196289 17.9528C2.43064 19.3847 5.0837 20.2207 7.93549 20.2207Z" fill="white"/>
</svg>
